Simulation
nRows=48
nColumns=15
endheader
time  TH_x TH_y TH_z SC_y  SC_z  SC_x  AC_y  AC_z  AC_x  GH_y  GH_z  GH_yy  EL_x  PS_y
5.745  0.000000  0.000000  0.000000  -53.09940149257921  23.663830688122136  46.71456539190995  62.087941283149014  -11.21936924847861  17.108204804371642  5.483775499049514  50.03900711450883  -26.05575618042389  18.443595562687435  120.000000
5.80245  0.000000  0.000000  0.000000  -52.87063668562365  24.584800953259037  44.07492840809013  58.879958845458894  -10.120073101746064  15.099926051366488  10.886890964801967  46.80743192741191  -30.461487815318343  18.746843441409226  120.000000
5.8599  0.000000  0.000000  0.000000  -52.001873383202074  25.176549534327147  40.08850851891614  55.09941864164902  -8.556459833561847  12.581612680278313  18.240812408118973  43.612151091892024  -36.12518568982913  19.14081198861297  120.000000
5.91735  0.000000  0.000000  0.000000  -50.4065828397192  25.168120549966076  34.81629662668685  51.14115155107455  -6.744581638262388  9.7950004602654  27.093920562752402  40.98398225509467  -42.597409616887234  19.534337604200914  120.000000
5.9748  0.000000  0.000000  0.000000  -48.208145450532335  24.337650802912048  28.575245307336576  47.41340138294474  -4.892264953179413  7.038122135753471  36.22098016043345  39.254157067278705  -48.77161153309481  19.826297590323627  120.000000
6.03225  0.000000  0.000000  0.000000  -45.75397453602158  22.62568008793306  21.889828036634995  44.21407829992937  -3.165304994823645  4.590790410585809  44.100209201307756  38.31179142301492  -53.34586554671459  19.92803561784236  120.000000
6.089700000000001  0.000000  0.000000  0.000000  -43.455055096201725  20.17139366206191  15.266201677141483  41.69907282499859  -1.7135760379203622  2.6688262167993244  49.8135927066936  37.746515982592676  -55.64788902844711  19.77954473683441  120.000000
6.14715  0.000000  0.000000  0.000000  -41.56363740365965  17.202134624707526  9.038251886566474  39.87767534148874  -0.5886685655583679  1.3677422426508974  53.276784981063315  37.18781876403614  -55.80937627185734  19.380280509358027  120.000000
6.2046  0.000000  0.000000  0.000000  -40.155992775210436  13.973513513601917  3.383400621690761  38.64474308250319  0.29785391419133  0.6703163731968738  54.90524356010016  36.42913523432737  -54.401921392111895  18.771918867812825  120.000000
6.26205  0.000000  0.000000  0.000000  -39.16343305771544  10.740588879298858  -1.61216775114326  37.85191986478048  1.1367982143929478  0.5015491696105118  55.31715412699076  35.36519144871104  -52.113805351764825  18.015118333643073  120.000000
6.3195  0.000000  0.000000  0.000000  -38.4214132903525  7.728778829807057  -5.895170156729687  37.38375968194647  2.1475454426618144  0.767428050440067  55.155662935115906  33.938483112264045  -49.566341861702625  17.197147012326493  120.000000
6.37695  0.000000  0.000000  0.000000  -37.77556771958762  5.107526854402724  -9.445238982459369  37.17564076784597  3.4592187646265278  1.3758377791415826  54.9959928988523  32.143079085542105  -47.25999929617672  16.415822344489253  120.000000
6.4344  0.000000  0.000000  0.000000  -37.18553134944984  2.9703206092907988  -12.30143591679587  37.154848326551324  5.034075305983507  2.2526859079319386  55.28450890125728  30.052080462040458  -45.54745891019514  15.749195019443238  120.000000
6.49185  0.000000  0.000000  0.000000  -36.72349842148431  1.3632083640243802  -14.56840231217306  37.25104156462523  6.7381166294919765  3.3138443384864082  56.32261149316803  27.83531992484266  -44.62117393424803  15.266227127599336  120.000000
6.549300000000001  0.000000  0.000000  0.000000  -36.48327835690594  0.2902626293603336  -16.372072871380567  37.413977691478486  8.439717688189857  4.455139504348611  58.263861778191526  25.691731935582002  -44.5413682278987  15.01318274744618  120.000000
6.60675  0.000000  0.000000  0.000000  -36.52680369965099  -0.31877287440811464  -17.805904509812102  37.58300664027495  10.051113507889248  5.585867755234405  61.10296187112315  23.755263512482887  -45.2640939586732  14.991940191420108  120.000000
6.6642  0.000000  0.000000  0.000000  -36.85292073972186  -0.5712788126697036  -18.9242195605077  37.71058866279811  11.535066671562392  6.633969670282206  64.71916232518156  22.077272873511436  -46.683660211365755  15.175033683019773  120.000000
6.72165  0.000000  0.000000  0.000000  -37.414693538884876  -0.5671872751898671  -19.757124457109384  37.782890875671505  12.878548660929344  7.546328362302631  68.93335608945  20.66150129036079  -48.67826721221945  15.522041662943773  120.000000
6.7791  0.000000  0.000000  0.000000  -38.14836182192131  -0.3950118714657599  -20.3220535529147  37.80516306804985  14.072171813886913  8.292345913388097  73.53255974561202  19.48603284738283  -51.1128418783353  15.97930004864459  120.000000
6.83655  0.000000  0.000000  0.000000  -38.98147497451363  -0.1249758586158692  -20.63428084648834  37.801277373379  15.104122119930995  8.85651096094036  78.29842572759905  18.517948475955095  -53.842107542334695  16.474934747482767  120.000000
6.894  0.000000  0.000000  0.000000  -39.83867373088932  0.1912868026669044  -20.711063289172706  37.80420016915953  15.960781904630819  9.23538569250457  83.03994454191296  17.717752951016504  -56.727524706074114  16.927173084812576  120.000000
6.95145  0.000000  0.000000  0.000000  -40.65261628805033  0.5144026185670552  -20.571316384674542  37.84396665322354  16.6303810498865  9.437774945423714  87.60874469083194  17.044246086310622  -59.65532376998936  17.25891921525596  120.000000
7.008900000000001  0.000000  0.000000  0.000000  -41.379987526604395  0.8139342376405262  -20.233973455551705  37.94028031066369  17.108098870967694  9.479331456049984  91.89640658940175  16.461149498455132  -62.53998007711682  17.424716730830557  120.000000
7.06635  0.000000  0.000000  0.000000  -42.00559392600488  1.0728690770900766  -19.717822205077063  38.100301453171525  17.3970065948361  9.378235136020162  95.83464794598332  15.93878752248837  -65.32619053740773  17.433330004208628  120.000000
7.1238  0.000000  0.000000  0.000000  -42.53873311672164  1.2855347484524429  -19.04276100342362  38.32226502722887  17.50947482962352  9.151140289640017  99.3853226041625  15.455341276397307  -67.98278843632586  17.345918748275487  120.000000
7.18125  0.000000  0.000000  0.000000  -43.00569209952905  1.4543342473825294  -18.228892779251133  38.59868871120542  17.46377904380044  8.81405889036846  102.53166157415328  14.997532406774155  -70.49480231457528  17.24723876328026  120.000000
7.2387  0.000000  0.000000  0.000000  -43.433620098252284  1.5869152992236573  -17.296406416931415  38.91955189794677  17.281175672527198  8.382799493580219  105.27454404506226  14.558642254343216  -72.85283697893705  17.211448967855976  120.000000
7.29615  0.000000  0.000000  0.000000  -43.83988593390916  1.6928099098247809  -16.265724558648515  39.27412511537585  16.982434863063915  7.874234291382542  107.62910238630258  14.136926333208711  -75.04561260869733  17.27474429265161  120.000000
7.3536  0.000000  0.000000  0.000000  -44.226490864367165  1.781117764180451  -15.157911600180444  39.65123875267415  16.58605014588617  7.305684915345465  109.61965022262255  13.732742902279277  -77.0540495680233  17.430781505681942  120.000000
7.41105  0.000000  0.000000  0.000000  -44.58382380255643  1.8605197536400935  -13.99518793867214  40.0390615457906  16.107995917831836  6.693572997532558  111.27358204814047  13.34710909195516  -78.8526039670791  17.646168290233103  120.000000
7.468500000000001  0.000000  0.000000  0.000000  -44.89890681167539  1.938866707628891  -12.800636341174492  40.42354275497448  15.562396253365502  6.052112378383934  112.61453654517565  12.980312919656319  -80.41368699957728  17.882905277201726  120.000000
7.52595  0.000000  0.000000  0.000000  -45.162348333300955  2.0242769253139605  -11.59741172416935  40.7901195076228  14.962472085996279  5.392475769909349  113.66023810358811  12.632728911386188  -81.7151269433978  18.114357974742198  120.000000
7.5834  0.000000  0.000000  0.000000  -45.37088049254816  2.1240229981563545  -10.407344596045977  41.123666156388595  14.320901390314559  4.723458366899144  114.42788772600385  12.304579433745513  -82.75022984761557  18.331220329579526  120.000000
7.64085  0.000000  0.000000  0.000000  -45.526878860451035  2.242356877652677  -9.249487731643502  41.41068114283709  13.650008276590661  4.053137790098156  114.94121730171778  11.995681119221159  -83.53318737082331  18.536377403371983  120.000000
7.6983  0.000000  0.000000  0.000000  -45.6331017930778  2.380850982864675  -8.139904912780056  41.642701201385506  12.961137363303257  3.390453634665145  115.23542989556397  11.70626293225582  -84.09956687546568  18.737548533574166  120.000000
7.75575  0.000000  0.000000  0.000000  -45.69245826103225  2.536863532411857  -7.092002273345064  41.81957120391119  12.263887320102471  2.7470347080915354  115.34839080052245  11.436218223563754  -84.49340385385993  18.94021058605731  120.000000
7.8132  0.000000  0.000000  0.000000  -45.706919754598616  2.703388872938649  -6.117318033995532  41.94934403247444  11.564976684897744  2.1386794048257363  115.31178053196915  11.183343630028917  -84.75552924836  19.145320384333456  120.000000
7.87065  0.000000  0.000000  0.000000  -45.67901879704788  2.87091802221117  -5.224841171012031  42.04926573786811  10.867025905198226  1.583820603158474  115.13747179921414  10.942548184136374  -84.90771820408013  19.35047548440636  120.000000
7.928100000000001  0.000000  0.000000  0.000000  -45.612818963066495  3.0287622601268827  -4.415747405138332  42.14195912994317  10.165305810613178  1.0983401532255863  114.81226362318502  10.702308671808822  -84.94576019319904  19.553729539194304  120.000000
7.98555  0.000000  0.000000  0.000000  -45.51319295751162  3.165997853722174  -3.686740279215797  42.252524141477295  9.4534457841284  0.6909710891133626  114.289158670278  10.444703782995017  -84.82902436609531  19.756516501647425  120.000000
8.043  0.000000  0.000000  0.000000  -45.383897185147944  3.2730923940549883  -3.0376600602208197  42.39588066524512  8.73110501561174  0.3651243598817696  113.49559907158228  10.145913404663213  -84.48656275265905  19.96636890485051  120.000000
8.10045  0.000000  0.000000  0.000000  -45.22314851415101  3.3441913101559417  -2.477082786982435  42.5708228889257  8.010151946628797  0.11539529964521479  112.3315861541902  9.783638132070951  -83.81577314258237  20.19450253793847  120.000000
8.1579  0.000000  0.000000  0.000000  -45.019712518643026  3.3767981615725384  -2.0232445510312105  42.74948310664163  7.314869058088579  -0.0735790558483919  110.6725206536664  9.343036872514523  -82.68966833954705  20.44820174422479  120.000000
8.21535  0.000000  0.000000  0.000000  -44.75238727175803  3.371380636933478  -1.70045468143221  42.88617089545365  6.673975566616467  -0.2289622999395168  108.33946937131007  8.82636267925667  -80.9346715910884  20.71894143338564  120.000000
8.2728  0.000000  0.000000  0.000000  -44.389937885201505  3.3291899686469857  -1.5367621928844557  42.931793542816536  6.1091636587784865  -0.38277187199899804  105.07451408636746  8.265124769283057  -78.31257324564537  20.976232256629128  120.000000
8.33025  0.000000  0.000000  0.000000  -43.898908685501034  3.2413774137231908  -1.5588531322302441  42.84033661282622  5.626445075647858  -0.5564163292149674  100.5455212399855  7.720614362224532  -74.52157350236742  21.16886402411253  120.000000
8.3877  0.000000  0.000000  0.000000  -43.24532797744563  3.086984043517236  -1.7937146674201863  42.58039830205268  5.225207411266455  -0.7587830037134928  94.43353739995689  7.285761691766412  -69.27273258540058  21.24281188849879  120.000000
8.44515  0.000000  0.000000  0.000000  -42.40327926711506  2.8474159218197923  -2.2661423799920604  42.14511929706526  4.908248300843339  -0.9907545142132127  86.72409954484571  7.083824750868423  -62.55660256181179  21.171758586496743  120.000000
